<svg width="560" height="144" viewBox="0 0 560 144" fill="none" xmlns="http://www.w3.org/2000/svg">
<g clip-path="url(#clip0_655_102)">
<path d="M274.746 129.014C269.717 133.91 263.993 137.45 257.575 139.633C251.152 141.817 244.44 142.908 237.426 142.908C229.882 142.908 222.935 141.647 216.582 139.137C210.23 136.623 204.771 133.116 200.205 128.618C195.639 124.119 192.066 118.693 189.486 112.342C186.905 105.99 185.615 98.9773 185.615 91.3025C185.615 83.6278 186.839 76.1516 189.287 69.6678C191.735 63.1881 195.209 57.5934 199.709 52.8959C204.208 48.1985 209.634 44.5596 215.987 41.9793C222.339 39.399 229.485 38.1089 237.426 38.1089C244.44 38.1089 251.156 39.2005 257.575 41.3839C263.993 43.5672 269.717 47.111 274.746 52.0028L276.731 54.1861L282.487 40.6892H294.795V140.328H282.487L276.731 126.831L274.746 129.014ZM239.014 128.221C244.704 128.221 249.733 127.327 254.101 125.541C258.468 123.755 262.14 121.245 265.118 117.999C268.096 114.757 270.345 110.886 271.867 106.387C273.385 101.888 274.15 96.8601 274.15 91.3025C274.15 85.745 273.422 80.6175 271.966 75.9201C270.511 71.2267 268.36 67.1578 265.515 63.7133C262.67 60.2729 259.03 57.5934 254.597 55.6747C250.159 53.7602 244.969 52.7967 239.014 52.7967C233.059 52.7967 227.897 53.7602 223.53 55.6747C219.163 57.5934 215.59 60.2729 212.811 63.7133C210.031 67.1578 207.98 71.2267 206.657 75.9201C205.333 80.6175 204.672 85.745 204.672 91.3025C204.672 96.8601 205.433 101.524 206.955 106.09C208.472 110.655 210.66 114.558 213.505 117.8C216.351 121.042 219.924 123.589 224.225 125.442C228.522 127.298 233.456 128.221 239.014 128.221Z" fill="#F1EBE1"/>
<path d="M334.696 24.8105C331.251 24.8105 328.41 23.5865 326.16 21.1385C323.906 18.6906 322.785 15.7464 322.785 12.306C322.785 8.86561 323.906 6.11992 326.16 3.67195C328.41 1.22398 331.251 0 334.696 0C337.872 0 340.618 1.22398 342.934 3.67195C345.246 6.11992 346.408 8.99793 346.408 12.306C346.408 15.6141 345.246 18.5252 342.934 21.0393C340.618 23.5534 337.872 24.8105 334.696 24.8105ZM324.969 40.6892H344.026V140.328H324.969V40.6892Z" fill="#F1EBE1"/>
<path d="M376.18 40.6892H388.686L395.038 57.1633L397.023 54.7815C406.155 44.5927 417.201 39.0351 430.175 38.1089V58.3542C424.087 58.4866 418.33 59.5782 412.904 61.6292C407.478 63.6802 402.908 67.683 399.207 73.6375C398.942 73.9021 398.578 74.3653 398.115 75.0269C397.652 75.6926 397.222 76.3501 396.825 77.0117C396.428 77.8056 396.097 78.5996 395.832 79.3935C395.7 79.7905 395.564 80.1875 395.435 80.5844C395.303 80.9814 395.237 81.3122 395.237 81.5768C394.972 85.0214 394.906 88.4907 395.038 91.9972C395.171 95.5038 395.237 98.9772 395.237 102.418V140.328H376.18V40.6892Z" fill="#F1EBE1"/>
<path d="M530.131 129.014C525.098 133.91 519.378 137.45 512.96 139.633C506.541 141.817 499.825 142.908 492.811 142.908C485.268 142.908 478.32 141.647 471.968 139.137C465.615 136.623 460.156 133.116 455.59 128.618C451.025 124.119 447.452 118.693 444.871 112.342C442.29 105.99 441 98.9773 441 91.3025C441 83.6278 442.224 76.1516 444.672 69.6678C447.121 63.1881 450.595 57.5934 455.094 52.8959C459.594 48.1985 465.02 44.5596 471.372 41.9793C477.724 39.399 484.871 38.1089 492.811 38.1089C499.825 38.1089 506.541 39.2005 512.96 41.3839C519.378 43.5672 525.102 47.111 530.131 52.0028L532.116 54.1861L537.873 40.6892H550.18V140.328H537.873L532.116 126.831L530.131 129.014ZM494.399 128.221C500.086 128.221 505.119 127.327 509.486 125.541C513.853 123.755 517.525 121.245 520.503 117.999C523.481 114.757 525.731 110.886 527.252 106.387C528.77 101.888 529.535 96.8601 529.535 91.3025C529.535 85.745 528.807 80.6175 527.352 75.9201C525.892 71.2267 523.745 67.1578 520.9 63.7133C518.055 60.2729 514.416 57.5934 509.982 55.6747C505.545 53.7602 500.354 52.7967 494.399 52.7967C488.444 52.7967 483.283 53.7602 478.915 55.6747C474.548 57.5934 470.975 60.2729 468.196 63.7133C465.417 67.1578 463.361 71.2267 462.042 75.9201C460.719 80.6175 460.057 85.745 460.057 91.3025C460.057 96.8601 460.818 101.524 462.34 106.09C463.858 110.655 466.045 114.558 468.891 117.8C471.736 121.042 475.309 123.589 479.61 125.442C483.911 127.298 488.841 128.221 494.399 128.221Z" fill="#F1EBE1"/>
<path d="M53.3535 48.9636C112.389 30.8602 180.544 2.03457 127.691 99.3744C103.973 143.053 88.2333 144 88.2333 144C117.522 117.159 142.687 48.5294 47.9069 80.1421C16.075 90.761 3.27529 69.18 3.27529 69.18C3.27529 69.18 18.7756 84.823 60.6818 68.0966C153.833 30.914 117.369 103.836 117.369 103.836C117.369 103.836 191.905 9.39915 46.9392 59.7355C11.865 71.9174 -0.579103 48.6493 0.0205615 48.9636C13.3538 56.0222 29.6109 56.2455 53.3535 48.9636Z" fill="#F1EBE1"/>
</g>
<defs>
<clipPath id="clip0_655_102">
<rect width="560" height="144" fill="white"/>
</clipPath>
</defs>
</svg>
