<svg width="560" height="144" viewBox="0 0 560 144" fill="none" xmlns="http://www.w3.org/2000/svg">
<g clip-path="url(#clip0_67_685)">
<path d="M274.746 129.015C269.717 133.911 263.993 137.451 257.575 139.634C251.152 141.817 244.44 142.909 237.426 142.909C229.883 142.909 222.935 141.648 216.582 139.138C210.23 136.624 204.771 133.117 200.205 128.618C195.64 124.119 192.066 118.694 189.486 112.342C186.905 105.991 185.615 98.9777 185.615 91.303C185.615 83.6283 186.839 76.1521 189.287 69.6683C191.736 63.1886 195.209 57.5939 199.709 52.8964C204.209 48.199 209.635 44.5601 215.987 41.9798C222.339 39.3995 229.486 38.1094 237.426 38.1094C244.44 38.1094 251.156 39.201 257.575 41.3844C263.993 43.5677 269.717 47.1114 274.746 52.0032L276.731 54.1866L282.488 40.6897H294.795V140.329H282.488L276.731 126.832L274.746 129.015ZM239.014 128.221C244.705 128.221 249.733 127.328 254.101 125.541C258.468 123.755 262.14 121.245 265.118 117.999C268.096 114.757 270.345 110.887 271.867 106.388C273.385 101.889 274.15 96.8606 274.15 91.303C274.15 85.7455 273.422 80.618 271.967 75.9205C270.511 71.2272 268.36 67.1583 265.515 63.7138C262.67 60.2734 259.03 57.5939 254.597 55.6752C250.159 53.7606 244.969 52.7972 239.014 52.7972C233.059 52.7972 227.897 53.7606 223.53 55.6752C219.163 57.5939 215.59 60.2734 212.811 63.7138C210.032 67.1583 207.98 71.2272 206.657 75.9205C205.333 80.618 204.672 85.7455 204.672 91.303C204.672 96.8606 205.433 101.525 206.955 106.09C208.472 110.655 210.66 114.559 213.505 117.801C216.351 121.043 219.924 123.59 224.225 125.442C228.522 127.299 233.456 128.221 239.014 128.221Z" fill="#0A1A34"/>
<path d="M334.696 24.8105C331.251 24.8105 328.409 23.5865 326.16 21.1385C323.906 18.6906 322.785 15.7464 322.785 12.306C322.785 8.86561 323.906 6.11992 326.16 3.67195C328.409 1.22398 331.251 0 334.696 0C337.872 0 340.618 1.22398 342.934 3.67195C345.246 6.11992 346.408 8.99793 346.408 12.306C346.408 15.6141 345.246 18.5252 342.934 21.0393C340.618 23.5534 337.872 24.8105 334.696 24.8105ZM324.969 40.6892H344.026V140.328H324.969V40.6892Z" fill="#0A1A34"/>
<path d="M376.18 40.6897H388.686L395.038 57.1638L397.024 54.782C406.155 44.5932 417.201 39.0356 430.175 38.1094V58.3547C424.087 58.487 418.33 59.5787 412.904 61.6297C407.478 63.6807 402.909 67.6835 399.207 73.638C398.942 73.9026 398.579 74.3657 398.115 75.0274C397.652 75.6931 397.222 76.3506 396.825 77.0122C396.428 77.8061 396.097 78.6001 395.833 79.394C395.7 79.791 395.564 80.1879 395.435 80.5849C395.303 80.9819 395.237 81.3127 395.237 81.5773C394.972 85.0218 394.906 88.4912 395.038 91.9977C395.171 95.5043 395.237 98.9777 395.237 102.418V140.329H376.18V40.6897Z" fill="#0A1A34"/>
<path d="M530.131 129.015C525.098 133.911 519.378 137.451 512.96 139.634C506.541 141.817 499.825 142.909 492.811 142.909C485.268 142.909 478.32 141.648 471.968 139.138C465.615 136.624 460.156 133.117 455.59 128.618C451.025 124.119 447.452 118.694 444.871 112.342C442.29 105.991 441 98.9777 441 91.303C441 83.6283 442.224 76.1521 444.672 69.6683C447.121 63.1886 450.595 57.5939 455.094 52.8964C459.594 48.199 465.02 44.5601 471.372 41.9798C477.724 39.3995 484.871 38.1094 492.811 38.1094C499.825 38.1094 506.541 39.201 512.96 41.3844C519.378 43.5677 525.102 47.1114 530.131 52.0032L532.116 54.1866L537.873 40.6897H550.18V140.329H537.873L532.116 126.832L530.131 129.015ZM494.399 128.221C500.086 128.221 505.119 127.328 509.486 125.541C513.853 123.755 517.525 121.245 520.503 117.999C523.481 114.757 525.731 110.887 527.252 106.388C528.77 101.889 529.535 96.8606 529.535 91.303C529.535 85.7455 528.807 80.618 527.352 75.9205C525.892 71.2272 523.745 67.1583 520.9 63.7138C518.055 60.2734 514.416 57.5939 509.982 55.6752C505.545 53.7606 500.354 52.7972 494.399 52.7972C488.444 52.7972 483.283 53.7606 478.915 55.6752C474.548 57.5939 470.975 60.2734 468.196 63.7138C465.417 67.1583 463.361 71.2272 462.042 75.9205C460.719 80.618 460.057 85.7455 460.057 91.303C460.057 96.8606 460.818 101.525 462.34 106.09C463.858 110.655 466.045 114.559 468.891 117.801C471.736 121.043 475.309 123.59 479.61 125.442C483.911 127.299 488.841 128.221 494.399 128.221Z" fill="#0A1A34"/>
<path d="M53.3536 48.9638C112.39 30.8605 180.545 2.03483 127.691 99.3746C103.974 143.053 88.2334 144 88.2334 144C117.522 117.16 142.687 48.5296 47.907 80.1423C16.0752 90.7612 3.27542 69.1802 3.27542 69.1802C3.27542 69.1802 18.7757 84.8232 60.6819 68.0968C153.833 30.9142 117.369 103.836 117.369 103.836C117.369 103.836 191.905 9.39939 46.9393 59.7357C11.8651 71.9177 -0.578981 48.6496 0.0206835 48.9638C13.3539 56.0224 29.611 56.2457 53.3536 48.9638Z" fill="#0A1A34"/>
</g>
<defs>
<clipPath id="clip0_67_685">
<rect width="560" height="144" fill="white"/>
</clipPath>
</defs>
</svg>
